<svg width="150" height="166" viewBox="0 0 150 166" fill="none" xmlns="http://www.w3.org/2000/svg">
<path d="M149.262 82.17L132.662 29.6033C132.491 29.0405 132.142 28.5479 131.669 28.199C131.195 27.85 130.622 27.6633 130.033 27.6667H102.367V19.3667C102.37 18.7675 102.175 18.184 101.813 17.7067L94.0667 7.387V0H88.5333V8.3C88.5301 8.89915 88.7246 9.48263 89.0867 9.96L96.8333 20.2797V49.8C96.8333 50.5338 96.5418 51.2375 96.023 51.7563C95.5041 52.2752 94.8004 52.5667 94.0667 52.5667C93.3329 52.5667 92.6292 52.2752 92.1103 51.7563C91.5915 51.2375 91.3 50.5338 91.3 49.8V33.2H85.7667V52.5667C85.7667 53.3004 85.4752 54.0041 84.9563 54.523C84.4375 55.0418 83.7338 55.3333 83 55.3333C82.2662 55.3333 81.5625 55.0418 81.0437 54.523C80.5248 54.0041 80.2333 53.3004 80.2333 52.5667V33.2H74.7V52.5667C74.7 53.3004 74.4085 54.0041 73.8897 54.523C73.3708 55.0418 72.6671 55.3333 71.9333 55.3333C71.1996 55.3333 70.4959 55.0418 69.977 54.523C69.4582 54.0041 69.1667 53.3004 69.1667 52.5667V33.2H63.6333V52.5667C63.6333 53.3004 63.3418 54.0041 62.823 54.523C62.3041 55.0418 61.6004 55.3333 60.8667 55.3333C60.1329 55.3333 59.4292 55.0418 58.9103 54.523C58.3915 54.0041 58.1 53.3004 58.1 52.5667V33.2H52.5667V44.2667H49.8C49.0662 44.2667 48.3625 43.9752 47.8437 43.4563C47.3248 42.9375 47.0333 42.2338 47.0333 41.5V23.2677L57.2977 13.031C57.8073 12.5034 58.0945 11.8001 58.1 11.0667V0H52.5667V9.93233L42.3023 20.169C41.7927 20.6966 41.5055 21.3999 41.5 22.1333V27.6667H19.3667C18.7784 27.6633 18.2048 27.85 17.7312 28.199C17.2576 28.5479 16.9094 29.0405 16.7383 29.6033L0.138334 82.17C0.0520705 82.4385 0.00546734 82.7181 0 83V157.7C0.00656832 159.899 0.883139 162.007 2.43827 163.562C3.9934 165.117 6.10072 165.993 8.3 166H141.1C143.299 165.993 145.407 165.117 146.962 163.562C148.517 162.007 149.393 159.899 149.4 157.7V83C149.395 82.7181 149.348 82.4385 149.262 82.17ZM41.998 44.2667C42.5723 45.8789 43.6293 47.2751 45.0253 48.2652C46.4214 49.2553 48.0885 49.7912 49.8 49.8H52.5667V52.5667C52.5732 54.7659 53.4498 56.8733 55.0049 58.4284C56.5601 59.9835 58.6674 60.8601 60.8667 60.8667C62.9155 60.8613 64.8886 60.0918 66.4 58.7087C67.9085 60.0965 69.8835 60.8668 71.9333 60.8668C73.9832 60.8668 75.9581 60.0965 77.4667 58.7087C78.3573 59.5239 79.4165 60.133 80.5691 60.4928C81.7216 60.8526 82.9392 60.9542 84.1355 60.7905C85.3317 60.6268 86.4773 60.2017 87.4907 59.5454C88.5042 58.8892 89.3608 58.0179 89.9997 56.9933C91.2346 57.7129 92.6373 58.0946 94.0667 58.1C96.2659 58.0934 98.3733 57.2169 99.9284 55.6617C101.484 54.1066 102.36 51.9993 102.367 49.8V44.2667H110.667C111.4 44.2667 112.104 44.5582 112.623 45.077C113.142 45.5959 113.433 46.2996 113.433 47.0333V63.6333C113.433 64.3671 113.142 65.0708 112.623 65.5897C112.104 66.1085 111.4 66.4 110.667 66.4H38.7333C37.9996 66.4 37.2959 66.1085 36.777 65.5897C36.2582 65.0708 35.9667 64.3671 35.9667 63.6333V47.0333C35.9667 46.2996 36.2582 45.5959 36.777 45.077C37.2959 44.5582 37.9996 44.2667 38.7333 44.2667H41.998ZM143.867 157.7C143.867 158.434 143.575 159.137 143.056 159.656C142.537 160.175 141.834 160.467 141.1 160.467H8.3C7.56623 160.467 6.86252 160.175 6.34367 159.656C5.82482 159.137 5.53333 158.434 5.53333 157.7V83.415L21.3863 33.2H41.5V38.7333H38.7333C36.5341 38.7399 34.4267 39.6165 32.8716 41.1716C31.3165 42.7267 30.4399 44.8341 30.4333 47.0333V63.6333C30.4399 65.8326 31.3165 67.9399 32.8716 69.4951C34.4267 71.0502 36.5341 71.9268 38.7333 71.9333H110.667C112.866 71.9268 114.973 71.0502 116.528 69.4951C118.084 67.9399 118.96 65.8326 118.967 63.6333V47.0333C118.96 44.8341 118.084 42.7267 116.528 41.1716C114.973 39.6165 112.866 38.7399 110.667 38.7333H102.367V33.2H128.014L143.867 83.415V157.7Z" fill="#001833"/>
<path d="M105.133 94.0669C105.133 93.3331 104.842 92.6294 104.323 92.1105C103.804 91.5917 103.1 91.3002 102.367 91.3002H101.869L99.5447 79.6802C99.4161 79.0229 99.0519 78.4353 98.5205 78.0277C97.9891 77.6201 97.3271 77.4207 96.659 77.4669L52.3924 80.2335C51.8066 80.2705 51.2478 80.4928 50.7967 80.8683C50.3456 81.2438 50.0256 81.753 49.883 82.3224L47.6392 91.3002H47.0333C46.2996 91.3002 45.5959 91.5917 45.077 92.1105C44.5582 92.6294 44.2667 93.3331 44.2667 94.0669V105.134C44.2667 105.867 44.5582 106.571 45.077 107.09C45.5959 107.609 46.2996 107.9 47.0333 107.9H47.3404L52.5971 152.491C52.6762 153.162 52.9981 153.781 53.5022 154.231C54.0062 154.681 54.6576 154.931 55.3333 154.934H94.0667C94.7443 154.933 95.3984 154.685 95.9048 154.234C96.4112 153.784 96.7347 153.164 96.814 152.491L102.06 107.9H102.367C103.1 107.9 103.804 107.609 104.323 107.09C104.842 106.571 105.133 105.867 105.133 105.134V94.0669ZM49.8 96.8335H99.6V102.367H49.8V96.8335ZM54.7579 85.6368L94.5979 83.1468L96.2247 91.3002H53.3413L54.7579 85.6368ZM54.2267 118.967H95.201L93.5742 132.8H55.8396L54.2267 118.967ZM57.8067 149.4L56.5064 138.334H92.9074L91.6071 149.4H57.8067ZM95.8373 113.434H53.5627L52.9125 107.9H96.4875L95.8373 113.434Z" fill="#001833"/>
<path d="M11.0667 80.2333H16.6V85.7667H11.0667V80.2333Z" fill="#001833"/>
<path d="M22.1333 80.2333H38.7333V85.7667H22.1333V80.2333Z" fill="#001833"/>
<path d="M105.133 149.4H127.267V154.933H105.133V149.4Z" fill="#001833"/>
<path d="M132.8 149.4H138.333V154.933H132.8V149.4Z" fill="#001833"/>
</svg>
