<svg width="19" height="19" viewBox="0 0 19 19" fill="none" xmlns="http://www.w3.org/2000/svg">
<path fill-rule="evenodd" clip-rule="evenodd" d="M9.32331 10.6597C8.79368 10.6597 8.26564 10.4847 7.82389 10.1348L4.27327 7.27214C4.01756 7.06631 3.97798 6.69185 4.18302 6.43693C4.38964 6.18281 4.76331 6.14243 5.01823 6.34747L8.56568 9.20697C9.01139 9.56006 9.63918 9.56006 10.0881 9.20381L13.5999 6.34906C13.8548 6.14085 14.2285 6.18043 14.4359 6.43535C14.6425 6.68947 14.6037 7.06314 14.3496 7.27056L10.8314 10.1301C10.3865 10.4831 9.85452 10.6597 9.32331 10.6597Z" fill="#324A59"/>
<mask id="mask0_2_1589" style="mask-type:luminance" maskUnits="userSpaceOnUse" x="0" y="1" width="18" height="17">
<path fill-rule="evenodd" clip-rule="evenodd" d="M0.791626 1.5835H17.8124V17.021H0.791626V1.5835Z" fill="white"/>
</mask>
<g mask="url(#mask0_2_1589)">
<path fill-rule="evenodd" clip-rule="evenodd" d="M5.41405 15.8335H13.1882C13.1898 15.8319 13.1961 15.8335 13.2009 15.8335C14.1042 15.8335 14.9053 15.5105 15.5197 14.897C16.233 14.1868 16.6248 13.1664 16.6248 12.024V6.58683C16.6248 4.3757 15.1793 2.771 13.1882 2.771H5.41563C3.42459 2.771 1.979 4.3757 1.979 6.58683V12.024C1.979 13.1664 2.37167 14.1868 3.08417 14.897C3.6985 15.5105 4.50046 15.8335 5.40296 15.8335H5.41405ZM5.40059 17.021C4.17905 17.021 3.08813 16.5777 2.2458 15.7385C1.30767 14.8027 0.791504 13.4838 0.791504 12.024V6.58683C0.791504 3.73445 2.77938 1.5835 5.41563 1.5835H13.1882C15.8245 1.5835 17.8123 3.73445 17.8123 6.58683V12.024C17.8123 13.4838 17.2962 14.8027 16.358 15.7385C15.5165 16.5769 14.4248 17.021 13.2009 17.021H13.1882H5.41563H5.40059Z" fill="#324A59"/>
</g>
</svg>
