<svg width="16" height="16" viewBox="0 0 16 16" fill="none" xmlns="http://www.w3.org/2000/svg">
<path d="M15.5547 11.5408L13.4998 9.48597C12.907 8.89312 11.9422 8.89317 11.3494 9.48597L10.4467 10.3888C8.38473 9.30901 6.6903 7.61458 5.61056 5.55266L6.51339 4.64983C7.10619 4.05698 7.10619 3.09232 6.51339 2.49947L4.45855 0.444635C3.86571 -0.148212 2.90104 -0.148212 2.30819 0.444635L0.664315 2.08855C-0.194618 2.94744 -0.221473 4.46158 0.58868 6.35196C1.319 8.05607 2.65943 9.93278 4.36298 11.6363C6.06653 13.3399 7.94324 14.6803 9.64736 15.4106C10.5636 15.8033 11.3913 15.9993 12.099 15.9993C12.8514 15.9993 13.4681 15.7777 13.9108 15.335L15.5546 13.6912C15.8419 13.404 16 13.0221 16 12.616C16.0001 12.2099 15.8419 11.828 15.5547 11.5408ZM14.6371 12.7737L12.9933 14.4176C12.5482 14.8626 11.4885 14.7881 10.1584 14.2181C8.60243 13.5512 6.87003 12.3085 5.28038 10.7189C3.69078 9.12924 2.44805 7.39689 1.78116 5.84089C1.21119 4.51088 1.13655 3.45112 1.58167 3.00604L3.22555 1.36217C3.31256 1.2752 3.45406 1.2752 3.54102 1.36217L5.59585 3.417C5.68282 3.50397 5.68282 3.64551 5.59585 3.73243L4.03968 5.28865L4.23541 5.70181C5.49194 8.35446 7.64485 10.5074 10.2975 11.7639L10.7107 11.9596L12.2669 10.4035C12.3237 10.3466 12.3901 10.3381 12.4246 10.3381C12.4591 10.3381 12.5254 10.3466 12.5823 10.4034L14.6371 12.4582C14.6939 12.5151 14.7024 12.5815 14.7024 12.616C14.7025 12.6505 14.694 12.7169 14.6371 12.7737Z" fill="#324A59"/>
</svg>
