<svg width="28" height="29" viewBox="0 0 28 29" fill="none" xmlns="http://www.w3.org/2000/svg">
<path d="M11.8399 1.27441C14.711 9.26074 8.36725 9.54395 4.86949 14.6222C2.43363 18.1588 2.0235 25.9414 10.8008 27.9805C7.10943 25.9697 6.31647 20.1357 10.3087 16.4824C9.27793 20.0254 11.1719 22.2963 13.553 21.4626C15.8868 20.6455 17.403 22.3814 17.3633 24.3555C17.336 25.7148 16.9258 26.7627 15.4766 27.5273C15.4766 27.5273 23.4883 25.9414 23.4883 17.8418C23.4883 12.9141 19.2501 12.2308 21.3829 8.09961C18.8399 8.32617 17.9619 10.0475 18.211 12.8857C18.3751 14.7549 16.4883 16.0387 15.0938 15.1803C13.9611 14.483 14.0001 13.1088 14.9844 12.0928C17.0803 9.92964 17.9102 4.98438 11.8399 1.27441Z" fill="#D8D8D8"/>
</svg>
