<svg width="40" height="40" viewBox="0 0 40 40" fill="none" xmlns="http://www.w3.org/2000/svg">
<path fill-rule="evenodd" clip-rule="evenodd" d="M18.6742 3.86063C18.8813 3.19172 19.4407 2.85693 20 2.85693C20.5594 2.85693 21.1188 3.19172 21.3259 3.86063L24.4097 13.823C24.5947 14.4206 25.1306 14.826 25.7356 14.826H35.7478C37.0927 14.826 37.6565 16.6102 36.572 17.4371L28.4463 23.6341C27.9629 24.0018 27.7615 24.6492 27.9445 25.2415L31.0423 35.2482C31.3565 36.262 30.5798 37.1426 29.7113 37.1426C29.437 37.1426 29.1532 37.0546 28.8922 36.8556L20.8242 30.703C20.579 30.5161 20.2895 30.4226 20 30.4226C19.7105 30.4226 19.421 30.5161 19.1759 30.703L11.1078 36.8556C10.8468 37.0546 10.563 37.1426 10.2887 37.1426C9.42023 37.1426 8.64358 36.262 8.95779 35.2482L12.0555 25.2415C12.2386 24.6492 12.0372 24.0018 11.5538 23.6341L3.42811 17.4371C2.34359 16.6102 2.90739 14.826 4.25228 14.826H14.2645C14.8695 14.826 15.4054 14.4206 15.5904 13.823L18.6742 3.86063Z" fill="#C7C7CC"/>
</svg>
