<svg width="20" height="20" viewBox="0 0 20 20" fill="none" xmlns="http://www.w3.org/2000/svg">
<mask id="mask0_2_1607" style="mask-type:luminance" maskUnits="userSpaceOnUse" x="3" y="12" width="14" height="7">
<path fill-rule="evenodd" clip-rule="evenodd" d="M3.33331 12.0806H16.5332V18.2256H3.33331V12.0806Z" fill="white"/>
</mask>
<g mask="url(#mask0_2_1607)">
<path fill-rule="evenodd" clip-rule="evenodd" d="M9.93402 13.3306C6.38319 13.3306 4.58319 13.9406 4.58319 15.1447C4.58319 16.3597 6.38319 16.9756 9.93402 16.9756C13.484 16.9756 15.2832 16.3656 15.2832 15.1614C15.2832 13.9464 13.484 13.3306 9.93402 13.3306ZM9.93402 18.2256C8.30152 18.2256 3.33319 18.2256 3.33319 15.1447C3.33319 12.3981 7.10069 12.0806 9.93402 12.0806C11.5665 12.0806 16.5332 12.0806 16.5332 15.1614C16.5332 17.9081 12.7665 18.2256 9.93402 18.2256Z" fill="#324A59"/>
</g>
<mask id="mask1_2_1607" style="mask-type:luminance" maskUnits="userSpaceOnUse" x="5" y="1" width="10" height="10">
<path fill-rule="evenodd" clip-rule="evenodd" d="M5.50818 1.66699H14.3582V10.5158H5.50818V1.66699Z" fill="white"/>
</mask>
<g mask="url(#mask1_2_1607)">
<path fill-rule="evenodd" clip-rule="evenodd" d="M9.93404 2.8565C8.14988 2.8565 6.69821 4.30734 6.69821 6.0915C6.69238 7.86984 8.13321 9.31984 9.90988 9.3265L9.93404 9.9215V9.3265C11.7174 9.3265 13.1682 7.87484 13.1682 6.0915C13.1682 4.30734 11.7174 2.8565 9.93404 2.8565ZM9.93404 10.5157H9.90737C7.47237 10.5082 5.49987 8.52234 5.50821 6.089C5.50821 3.6515 7.4932 1.6665 9.93404 1.6665C12.374 1.6665 14.3582 3.6515 14.3582 6.0915C14.3582 8.5315 12.374 10.5157 9.93404 10.5157Z" fill="#324A59"/>
</g>
</svg>
