<svg width="32" height="32" viewBox="0 0 32 32" fill="none" xmlns="http://www.w3.org/2000/svg">
<path d="M32 14.9842C32 20.2667 27.7334 24.5842 22.4001 24.5842C17.1175 24.5842 12.8001 20.2667 12.8001 14.9842C12.8001 9.70168 17.0667 5.38423 22.3493 5.38423C27.7334 5.38423 32 9.70168 32 14.9842Z" fill="#FFB600"/>
<path d="M22.4001 5.38423C27.6826 5.38423 32 9.70168 32 14.9842C32 20.2667 27.7334 24.5842 22.4001 24.5842C17.1175 24.5842 12.8001 20.2667 12.8001 14.9842" fill="#F7981D"/>
<path d="M22.4 5.38423C27.6825 5.38423 32 9.70168 32 14.9842C32 20.2667 27.7333 24.5842 22.4 24.5842" fill="#FF8500"/>
<path d="M9.4984 5.38423C4.26666 5.43502 0 9.70168 0 14.9842C0 20.2667 4.26666 24.5842 9.59998 24.5842C12.0889 24.5842 14.3238 23.6191 16.0508 22.0953C16.4063 21.7906 16.7111 21.435 17.0158 21.0794H15.0349C14.7809 20.7747 14.527 20.4191 14.3238 20.1144H17.727C17.9301 19.8096 18.1333 19.454 18.2857 19.0985H13.7651C13.6127 18.7937 13.4603 18.4382 13.3587 18.0826H18.6412C18.946 17.1175 19.1492 16.1017 19.1492 15.035C19.1492 14.3239 19.0476 13.6636 18.946 13.0033H13.0539C13.1047 12.6477 13.2063 12.3429 13.3079 11.9874H18.5904C18.4889 11.6318 18.3365 11.2763 18.1841 10.9715H13.7143C13.8666 10.616 14.0698 10.3112 14.273 9.95565H17.6762C17.473 9.6001 17.219 9.24454 16.9143 8.93978H15.0349C15.3397 8.58422 15.6444 8.27946 16 7.9747C14.3238 6.4001 12.0381 5.48582 9.54919 5.48582C9.54919 5.38423 9.54919 5.38423 9.4984 5.38423Z" fill="#FF5050"/>
<path d="M0 14.9843C0 20.2669 4.26666 24.5843 9.59998 24.5843C12.0889 24.5843 14.3238 23.6192 16.0508 22.0954C16.4063 21.7907 16.7111 21.4351 17.0158 21.0796H15.0349C14.7809 20.7748 14.527 20.4192 14.3238 20.1145H17.727C17.9301 19.8097 18.1333 19.4542 18.2857 19.0986H13.7651C13.6127 18.7939 13.4603 18.4383 13.3587 18.0827H18.6412C18.946 17.1177 19.1492 16.1018 19.1492 15.0351C19.1492 14.324 19.0476 13.6637 18.946 13.0034H13.0539C13.1047 12.6478 13.2063 12.3431 13.3079 11.9875H18.5904C18.4889 11.632 18.3365 11.2764 18.1841 10.9716H13.7143C13.8666 10.6161 14.0698 10.3113 14.273 9.95577H17.6762C17.473 9.60022 17.219 9.24466 16.9143 8.9399H15.0349C15.3397 8.58435 15.6444 8.27958 16 7.97482C14.3238 6.40022 12.0381 5.48594 9.54919 5.48594H9.4984" fill="#E52836"/>
<path d="M9.60002 24.5843C12.0889 24.5843 14.3238 23.6192 16.0508 22.0954C16.4064 21.7907 16.7111 21.4351 17.0159 21.0796H15.0349C14.781 20.7748 14.527 20.4192 14.3238 20.1145H17.727C17.9302 19.8097 18.1333 19.4542 18.2857 19.0986H13.7651C13.6127 18.7939 13.4603 18.4383 13.3587 18.0827H18.6413C18.946 17.1177 19.1492 16.1018 19.1492 15.0351C19.1492 14.324 19.0476 13.6637 18.946 13.0034H13.054C13.1048 12.6478 13.2064 12.3431 13.308 11.9875H18.5905C18.4889 11.632 18.3365 11.2764 18.1841 10.9716H13.7143C13.8667 10.6161 14.0699 10.3113 14.273 9.95577H17.6762C17.473 9.60022 17.2191 9.24466 16.9143 8.9399H15.0349C15.3397 8.58435 15.6445 8.27958 16 7.97482C14.3238 6.40022 12.0381 5.48594 9.54923 5.48594H9.49844" fill="#CB2026"/>
<path d="M13.0032 17.4224L13.1556 16.5589C13.1048 16.5589 13.0032 16.6097 12.9016 16.6097C12.546 16.6097 12.4953 16.4065 12.546 16.3049L12.8508 14.5271H13.4095L13.5619 13.562H13.054L13.1556 12.9525H12.1397C12.1397 12.9525 11.5302 16.3049 11.5302 16.7112C11.5302 17.3208 11.8857 17.5747 12.3429 17.5747C12.6476 17.5747 12.9016 17.4731 13.0032 17.4224Z" fill="white"/>
<path fill-rule="evenodd" clip-rule="evenodd" d="M15.1365 17.5747C14.3238 17.5747 13.3587 17.2192 13.3587 15.7969C13.3587 14.5271 14.1206 13.4096 15.1873 13.5112C16.3048 13.5112 16.6603 14.3239 16.6603 14.9842C16.6603 15.2382 16.5079 15.8985 16.5079 15.8985H14.4254C14.4254 15.8985 14.2222 16.7112 15.3397 16.7112C15.8476 16.7112 16.4064 16.4572 16.4064 16.4572L16.2032 17.4223C16.2032 17.4223 15.8984 17.5747 15.1365 17.5747ZM15.5952 15.0122C15.6056 14.8839 15.6511 14.3239 15.1365 14.3239C14.5778 14.3239 14.4762 14.9842 14.4762 15.035H15.5937C15.5937 15.031 15.5943 15.0232 15.5952 15.0122Z" fill="white"/>
<path d="M21.5872 17.4225L21.7904 16.3051C21.7904 16.3051 21.2825 16.559 20.9269 16.559C20.2158 16.559 19.911 16.0003 19.911 15.3908C19.911 14.1717 20.5206 13.5114 21.2317 13.5114C21.7396 13.5114 22.146 13.8162 22.146 13.8162L22.2983 12.7495C22.2983 12.7495 21.6888 12.4956 21.1301 12.4956C19.9618 12.4956 18.7936 13.5114 18.7936 15.4416C18.7936 16.7114 19.4031 17.5749 20.6221 17.5749C21.0285 17.5749 21.5872 17.4225 21.5872 17.4225Z" fill="white"/>
<path fill-rule="evenodd" clip-rule="evenodd" d="M6.1968 13.6131C6.1968 13.6131 6.70474 13.41 7.41585 13.41C7.7714 13.41 8.78728 13.4608 8.78728 14.6798L8.38093 17.4734H7.46664L7.51744 17.0671C7.50672 17.0671 7.48472 17.0874 7.44998 17.1195C7.32002 17.2396 7.01191 17.5242 6.45077 17.5242C6.09522 17.5242 5.48569 17.3211 5.48569 16.4068C5.48569 15.2385 6.45077 14.883 7.31426 14.883H7.7714C7.7714 14.883 7.8222 14.8322 7.8222 14.629C7.8222 14.3242 7.51744 14.2735 7.16188 14.2735C6.50157 14.2735 6.04442 14.4766 6.04442 14.4766L6.1968 13.6131ZM6.90795 16.6607C7.51747 16.6607 7.61906 15.8481 7.61906 15.6957C7.61906 15.6957 7.56827 15.6957 7.41589 15.6449C6.65398 15.6449 6.5016 16.0004 6.5016 16.2544C6.5016 16.4068 6.60319 16.6607 6.90795 16.6607Z" fill="white"/>
<path d="M9.75241 17.5239C10.0064 17.5239 11.2762 17.5747 11.2762 16.2033C11.2762 14.9335 10.0572 15.1874 10.0572 14.6795C10.0572 14.4255 10.2603 14.3239 10.6159 14.3239C10.7683 14.3239 11.327 14.3747 11.327 14.3747L11.4794 13.4605C11.4794 13.4605 11.1238 13.3589 10.5143 13.3589C9.75241 13.3589 8.9905 13.6636 8.9905 14.6795C8.9905 15.8477 10.2603 15.7462 10.2603 16.2033C10.2603 16.5081 9.90479 16.5589 9.65082 16.5589C9.19368 16.5589 8.73654 16.4065 8.73654 16.4065L8.58416 17.3208C8.63495 17.4223 8.88892 17.5239 9.75241 17.5239Z" fill="white"/>
<path fill-rule="evenodd" clip-rule="evenodd" d="M29.8159 13.9687L30.0191 12.5973L31.0857 12.6481L30.3238 17.5242H29.308L29.3587 17.1687C29.3587 17.1687 29.0032 17.575 28.3937 17.575C27.5302 17.575 27.1238 16.7115 27.1238 15.8988C27.1238 14.5782 27.9365 13.4608 28.8508 13.4608C29.4095 13.4608 29.8159 13.9687 29.8159 13.9687ZM28.7492 16.5592C29.308 16.5592 29.5619 15.8481 29.5619 15.2893C29.5619 14.6798 29.3588 14.4258 29.0032 14.4258C28.5461 14.4258 28.1905 14.9338 28.1905 15.7465C28.1905 16.2544 28.3937 16.5592 28.7492 16.5592Z" fill="white"/>
<path d="M1.87936 17.4735L2.48888 13.8163L2.59047 17.4735H3.30158L4.62221 13.8163L4.06348 17.4735H5.13015L5.94285 12.5973H4.26666L3.25079 15.5941L3.19999 12.5973H1.72698L0.914282 17.4735H1.87936Z" fill="white"/>
<path d="M17.6254 17.4731C17.9302 15.7969 17.9809 14.4255 18.6921 14.6794C18.7936 14.0191 18.946 13.7651 19.0476 13.5112C19.0476 13.5112 18.9968 13.5112 18.8444 13.5112C18.3873 13.5112 18.0317 14.1207 18.0317 14.1207L18.1333 13.562H17.1683L16.5079 17.5239H17.6254V17.4731Z" fill="white"/>
<path fill-rule="evenodd" clip-rule="evenodd" d="M22.7047 13.6131C22.7047 13.6131 23.2127 13.41 23.9238 13.41C24.2793 13.41 25.346 13.4608 25.2952 14.6798L24.8889 17.4734H23.9746L24.0254 17.0671C24.0147 17.0671 23.9927 17.0874 23.9579 17.1195C23.828 17.2396 23.5198 17.5242 22.9587 17.5242C22.6032 17.5242 21.9936 17.3211 21.9936 16.4068C21.9936 15.2385 22.9587 14.883 23.8222 14.883H24.2793C24.2793 14.883 24.3301 14.8322 24.3301 14.629C24.3301 14.3242 24.0254 14.2735 23.6698 14.2735C23.0095 14.2735 22.5524 14.4766 22.5524 14.4766L22.7047 13.6131ZM23.4667 16.6607C24.0762 16.6607 24.1778 15.8481 24.1778 15.6957C24.1653 15.6957 24.1559 15.6957 24.1466 15.6949C24.1178 15.6926 24.0896 15.6832 23.9746 15.6449C23.2127 15.6449 23.0603 16.0004 23.0603 16.2544C23.0603 16.4068 23.1619 16.6607 23.4667 16.6607Z" fill="white"/>
<path d="M26.1587 17.4731C26.4635 15.7969 26.5142 14.4255 27.2254 14.6794C27.3269 14.0191 27.4793 13.7651 27.5809 13.5112C27.5809 13.5112 27.5301 13.5112 27.3777 13.5112C26.9206 13.5112 26.565 14.1207 26.565 14.1207L26.6666 13.562H25.7016L25.0412 17.5239H26.1587V17.4731Z" fill="white"/>
<path d="M11.4286 16.7112C11.4286 17.3208 11.7841 17.5747 12.2413 17.5747C12.5968 17.5747 12.9016 17.4731 13.0032 17.4224L13.1556 16.5589C13.1048 16.5589 13.0032 16.6097 12.9016 16.6097C12.546 16.6097 12.4953 16.4065 12.546 16.3049L12.8508 14.5271H13.4095L13.5619 13.562H13.054L13.1556 12.9525" fill="#DCE5E5"/>
<path fill-rule="evenodd" clip-rule="evenodd" d="M15.1365 17.5747C14.3238 17.5747 13.8667 17.2192 13.8667 15.7969C13.8667 14.5271 14.1206 13.4096 15.1873 13.5112C16.3048 13.5112 16.6603 14.3239 16.6603 14.9842C16.6603 15.2382 16.5079 15.8985 16.5079 15.8985H14.4254C14.4254 15.8985 14.2222 16.7112 15.3397 16.7112C15.8476 16.7112 16.4064 16.4572 16.4064 16.4572L16.2032 17.4223C16.2032 17.4223 15.8984 17.5747 15.1365 17.5747ZM15.7968 15.035C15.7968 14.9842 15.6952 14.3239 15.1365 14.3239C14.5777 14.3239 14.4761 14.9842 14.4761 15.035H15.7968Z" fill="#DCE5E5"/>
<path d="M21.5873 17.4225L21.7905 16.3051C21.7905 16.3051 21.2826 16.559 20.927 16.559C20.2159 16.559 19.9112 16.0003 19.9112 15.3908C19.9112 14.1717 20.5207 13.5114 21.2318 13.5114C21.7397 13.5114 22.1461 13.8162 22.1461 13.8162L22.2985 12.7495C22.2985 12.7495 21.6889 12.4956 21.1302 12.4956C19.962 12.4956 19.3016 13.5114 19.3016 15.4416C19.3016 16.7114 19.4032 17.5749 20.6223 17.5749C21.0286 17.5749 21.5873 17.4225 21.5873 17.4225Z" fill="#DCE5E5"/>
<path fill-rule="evenodd" clip-rule="evenodd" d="M7.16188 14.3239C6.50157 14.3239 6.04442 14.5271 6.04442 14.5271L7.36506 13.5112C7.7714 13.5112 8.78728 13.562 8.78728 14.7302L8.38093 17.5239H7.46664L7.51744 17.1175C7.50672 17.1175 7.48472 17.1379 7.44998 17.1699C7.32002 17.29 7.01191 17.5747 6.45077 17.5747C6.09522 17.5747 5.48569 17.3715 5.48569 16.4572C5.48569 15.289 6.45077 14.9334 7.31426 14.9334H7.7714C7.7714 14.9334 7.8222 14.8826 7.8222 14.6794C7.8222 14.3747 7.51744 14.3239 7.16188 14.3239ZM6.90795 16.6604C7.51747 16.6604 8.127 15.8477 8.127 15.6953C8.127 15.6953 7.56827 15.6953 7.41589 15.6445C6.65398 15.6445 6.5016 16.0001 6.5016 16.254C6.5016 16.4064 6.60319 16.6604 6.90795 16.6604Z" fill="#DCE5E5"/>
<path d="M8.63489 17.4223C8.63489 17.4223 8.93965 17.5239 9.80314 17.5239C10.0571 17.5239 11.3269 17.5747 11.3269 16.2033C11.3269 14.9335 10.1079 15.1874 10.1079 14.6795C10.1079 14.4255 10.3111 14.3239 10.6666 14.3239C10.819 14.3239 11.3777 14.3747 11.3777 14.3747L11.5301 13.4605C11.5301 13.4605 11.1746 13.3589 10.565 13.3589C9.80314 13.3589 9.54917 13.6636 9.54917 14.6795C9.54917 15.8477 10.3111 15.7462 10.3111 16.2033C10.3111 16.5081 9.95552 16.5589 9.70155 16.5589" fill="#DCE5E5"/>
<path fill-rule="evenodd" clip-rule="evenodd" d="M28.8508 13.4606C29.4095 13.4606 29.8159 13.9685 29.8159 13.9685L31.0857 12.6479L30.3238 17.5241H29.308L29.3587 17.1685C29.3587 17.1685 29.0032 17.5749 28.3937 17.5749C27.6128 17.5749 27.6212 16.8686 27.6299 16.1325C27.6308 16.0546 27.6318 15.9764 27.6318 15.8987C27.6318 14.578 27.9365 13.4606 28.8508 13.4606ZM28.7492 16.559C29.308 16.559 29.7651 15.8479 29.7651 15.2891C29.7651 14.6796 29.3588 14.4257 29.0032 14.4257C28.5461 14.4257 28.1905 14.9336 28.1905 15.7463C28.1905 16.2542 28.3937 16.559 28.7492 16.559Z" fill="#DCE5E5"/>
<path d="M1.87936 17.4735L2.48888 13.8163L2.59047 17.4735H3.30158L4.62221 13.8163L4.06348 17.4735H5.13015L5.94285 12.5973H4.67301L3.25079 15.5941L3.19999 12.5973H2.64126L0.914282 17.4735H1.87936Z" fill="#DCE5E5"/>
<path d="M16.5588 17.4731H17.6255C17.9302 15.7969 17.981 14.4255 18.6921 14.6794C18.7937 14.0191 18.9461 13.7652 19.0477 13.5112C19.0477 13.5112 18.9969 13.5112 18.8445 13.5112C18.3874 13.5112 18.0318 14.1207 18.0318 14.1207L18.1334 13.562" fill="#DCE5E5"/>
<path fill-rule="evenodd" clip-rule="evenodd" d="M23.6698 14.3239C23.0095 14.3239 22.5524 14.5271 22.5524 14.5271L23.873 13.5112C24.2793 13.5112 25.2952 13.562 25.2952 14.7302L24.8889 17.5239H23.9746L24.0254 17.1175C24.0147 17.1175 23.9927 17.1379 23.9579 17.1699C23.828 17.29 23.5198 17.5747 22.9587 17.5747C22.6032 17.5747 21.9936 17.3715 21.9936 16.4572C21.9936 15.289 22.9587 14.9334 23.8222 14.9334H24.2793C24.2793 14.9334 24.3301 14.8826 24.3301 14.6794C24.3301 14.3747 24.0254 14.3239 23.6698 14.3239ZM23.4159 16.6604C24.0254 16.6604 24.6349 15.8477 24.6349 15.6953C24.6349 15.6953 24.127 15.6953 23.9238 15.6445C23.1619 15.6445 23.0095 16.0001 23.0095 16.254C23.0095 16.4064 23.1111 16.6604 23.4159 16.6604Z" fill="#DCE5E5"/>
<path d="M25.092 17.4731H26.1586C26.4634 15.7969 26.5142 14.4255 27.2253 14.6794C27.3269 14.0191 27.4793 13.7652 27.5809 13.5112C27.5809 13.5112 27.5301 13.5112 27.3777 13.5112C26.9205 13.5112 26.565 14.1207 26.565 14.1207L26.6666 13.562" fill="#DCE5E5"/>
</svg>
