<svg width="26" height="26" viewBox="0 0 26 26" fill="none" xmlns="http://www.w3.org/2000/svg">
<mask id="mask0_2_1150" style="mask-type:luminance" maskUnits="userSpaceOnUse" x="4" y="15" width="18" height="9">
<path fill-rule="evenodd" clip-rule="evenodd" d="M4.33337 15.7041H21.4933V23.6926H4.33337V15.7041Z" fill="white"/>
</mask>
<g mask="url(#mask0_2_1150)">
<path fill-rule="evenodd" clip-rule="evenodd" d="M12.9143 17.3291C8.29825 17.3291 5.95825 18.1221 5.95825 19.6875C5.95825 21.267 8.29825 22.0676 12.9143 22.0676C17.5293 22.0676 19.8683 21.2746 19.8683 19.7092C19.8683 18.1297 17.5293 17.3291 12.9143 17.3291ZM12.9143 23.6926C10.7921 23.6926 4.33325 23.6926 4.33325 19.6875C4.33325 16.1169 9.231 15.7041 12.9143 15.7041C15.0366 15.7041 21.4933 15.7041 21.4933 19.7092C21.4933 23.2799 16.5966 23.6926 12.9143 23.6926Z" fill="#001833"/>
</g>
<mask id="mask1_2_1150" style="mask-type:luminance" maskUnits="userSpaceOnUse" x="7" y="2" width="12" height="12">
<path fill-rule="evenodd" clip-rule="evenodd" d="M7.16077 2.16699H18.6658V13.6705H7.16077V2.16699Z" fill="white"/>
</mask>
<g mask="url(#mask1_2_1150)">
<path fill-rule="evenodd" clip-rule="evenodd" d="M12.9144 3.7135C10.595 3.7135 8.7078 5.59959 8.7078 7.919C8.70022 10.2308 10.5733 12.1158 12.883 12.1245L12.9144 12.898V12.1245C15.2327 12.1245 17.1188 10.2373 17.1188 7.919C17.1188 5.59959 15.2327 3.7135 12.9144 3.7135ZM12.9144 13.6704H12.8797C9.71422 13.6607 7.14997 11.0791 7.1608 7.91576C7.1608 4.747 9.7413 2.1665 12.9144 2.1665C16.0864 2.1665 18.6658 4.747 18.6658 7.91901C18.6658 11.091 16.0864 13.6704 12.9144 13.6704Z" fill="#001833"/>
</g>
</svg>
