<svg width="43" height="13" viewBox="0 0 43 13" fill="none" xmlns="http://www.w3.org/2000/svg">
<path d="M15.5494 12.66L17.7034 0.408218H21.0691L18.9824 12.66H15.5494Z" fill="#3C58BF"/>
<path d="M15.5494 12.66L18.3093 0.408218H21.0691L18.9824 12.66H15.5494Z" fill="#293688"/>
<path d="M31.1661 0.544523C30.4929 0.272261 29.4159 0 28.0697 0C24.704 0 22.2807 1.70163 22.2807 4.15199C22.2807 5.98975 23.9635 6.94267 25.3098 7.55525C26.6561 8.16784 27.06 8.57623 27.06 9.12076C27.06 9.93754 25.9829 10.3459 25.0406 10.3459C23.6943 10.3459 22.9538 10.1417 21.8095 9.66528L21.3383 9.46108L20.8671 12.2518C21.6749 12.5921 23.1558 12.9324 24.704 12.9324C28.2716 12.9324 30.6276 11.2308 30.6276 8.6443C30.6276 7.21493 29.7525 6.12588 27.7331 5.24103C26.5214 4.62844 25.781 4.28812 25.781 3.67553C25.781 3.13101 26.3868 2.58648 27.7331 2.58648C28.8774 2.58648 29.6852 2.79068 30.291 3.06294L30.6276 3.19907L31.1661 0.544523Z" fill="#3C58BF"/>
<path d="M31.1661 0.544523C30.4929 0.272261 29.4159 0 28.0697 0C24.704 0 22.8865 1.70163 22.8865 4.15199C22.8865 5.98975 23.9635 6.94267 25.3098 7.55525C26.6561 8.16784 27.06 8.57623 27.06 9.12076C27.06 9.93754 25.9829 10.3459 25.0406 10.3459C23.6943 10.3459 22.9538 10.1417 21.8095 9.66528L21.3383 9.46108L20.8671 12.2518C21.6749 12.5921 23.1558 12.9324 24.704 12.9324C28.2716 12.9324 30.6276 11.2308 30.6276 8.6443C30.6276 7.21493 29.7525 6.12588 27.7331 5.24103C26.5214 4.62844 25.781 4.28812 25.781 3.67553C25.781 3.13101 26.3868 2.58648 27.7331 2.58648C28.8774 2.58648 29.6852 2.79068 30.291 3.06294L30.6276 3.19907L31.1661 0.544523Z" fill="#293688"/>
<path fill-rule="evenodd" clip-rule="evenodd" d="M35.2049 1.29307C35.5415 0.476284 36.1473 0.408218 36.9551 0.408218H39.5803L42.4075 12.66H39.1764L38.7725 10.618H34.4645L33.7913 12.66H30.1564L35.2049 1.29307ZM36.7531 4.96871C36.7531 4.96871 35.6088 7.96358 35.4068 8.57617V8.64424H38.234C38.0994 7.96358 37.4262 4.90064 37.4262 4.90064L37.2243 3.74353C37.0223 4.21999 36.7531 4.96871 36.7531 4.96871Z" fill="#3C58BF"/>
<path fill-rule="evenodd" clip-rule="evenodd" d="M36.0127 1.29307C36.3492 0.476284 36.9551 0.408218 37.7628 0.408218H39.5803L42.4075 12.66H39.1764L38.7725 10.618H34.4645L33.7913 12.66H30.1564L36.0127 1.29307ZM36.7531 4.96871C36.7531 4.96871 35.6761 7.89552 35.4068 8.57617V8.64424H38.234C38.0994 7.96358 37.4262 4.90064 37.4262 4.90064L37.2243 3.74353C37.0223 4.21999 36.7531 4.96871 36.7531 4.96871Z" fill="#293688"/>
<path d="M9.35653 8.98475L9.01997 7.21505C8.41414 5.17309 6.46205 2.92693 4.30802 1.83789L7.33713 12.7283H10.9721L16.4244 0.47658H12.7895L9.35653 8.98475Z" fill="#3C58BF"/>
<path d="M9.35653 8.98475L9.01997 7.21505C8.41414 5.17309 6.46205 2.92693 4.30802 1.83789L7.33713 12.7283H10.9721L16.4244 0.47658H13.4627L9.35653 8.98475Z" fill="#293688"/>
<path d="M0 0.408218L0.605821 0.544349C4.91388 1.56533 7.87568 4.15181 9.02001 7.21475L7.80836 1.4292C7.60642 0.612415 7.0006 0.408218 6.26015 0.408218H0V0.408218Z" fill="#FFBC00"/>
<path d="M0 0.408218C4.30806 1.4292 7.87568 4.08375 9.02001 7.14669L7.87568 2.31405C7.67374 1.49726 7.0006 1.02081 6.26015 1.02081L0 0.408218Z" fill="#F7981D"/>
<path d="M0 0.408218C4.30806 1.4292 7.87568 4.08375 9.02001 7.14669L8.21224 4.49214C8.0103 3.67536 7.74105 2.85857 6.79866 2.51824L0 0.408218Z" fill="#ED7C00"/>
<path d="M12.7223 8.57613L10.4336 6.26191L9.35661 8.84839L9.08735 7.14676C8.48153 5.1048 6.52944 2.85864 4.37541 1.7696L7.40451 12.6601H11.0394L12.7223 8.57613Z" fill="#051244"/>
<path d="M18.9825 12.6598L16.088 9.66491L15.5495 12.6598H18.9825Z" fill="#051244"/>
<path d="M26.7235 8.43977C26.9928 8.71203 27.1274 8.91623 27.0601 9.18849C27.0601 10.0053 25.9831 10.4137 25.0407 10.4137C23.6944 10.4137 22.954 10.2095 21.8096 9.73301L21.3384 9.52882L20.8672 12.3195C21.675 12.6598 23.1559 13.0002 24.7041 13.0002C26.8581 13.0002 28.6083 12.3876 29.618 11.2985L26.7235 8.43977Z" fill="#051244"/>
<path d="M30.6277 12.6599H33.7915L34.4646 10.6179H38.7727L39.1765 12.6599H42.4076L41.2633 7.6911L37.2245 3.7433L37.4264 4.83235C37.4264 4.83235 38.0995 7.89529 38.2342 8.57595H35.407C35.6762 7.89529 36.7533 4.96848 36.7533 4.96848C36.7533 4.96848 37.0225 4.21976 37.2245 3.7433" fill="#051244"/>
</svg>
