<svg width="15" height="44" viewBox="0 0 15 44" fill="none" xmlns="http://www.w3.org/2000/svg">
<path d="M5.41211 29.093C5.76904 29.093 6.05127 28.9353 6.25049 28.6282L14.0947 16.2766C14.2441 16.0359 14.3022 15.8533 14.3022 15.6624C14.3022 15.2058 14.0034 14.907 13.5469 14.907C13.2148 14.907 13.0322 15.0149 12.833 15.3303L5.37891 27.2087L1.51074 22.1453C1.30322 21.8547 1.0957 21.7385 0.796875 21.7385C0.32373 21.7385 0 22.0623 0 22.5188C0 22.7097 0.0830078 22.9255 0.240723 23.1248L4.54883 28.6116C4.79785 28.9353 5.05518 29.093 5.41211 29.093Z" fill="#007AFF"/>
</svg>
