<svg width="226" height="232" viewBox="0 0 226 232" fill="none" xmlns="http://www.w3.org/2000/svg">
<path d="M9.04 0H0V9.2596H9.04V0Z" fill="black"/>
<path d="M18.08 0H9.04V9.2596H18.08V0Z" fill="black"/>
<path d="M27.12 0H18.08V9.2596H27.12V0Z" fill="black"/>
<path d="M36.16 0H27.12V9.2596H36.16V0Z" fill="black"/>
<path d="M45.2 0H36.16V9.2596H45.2V0Z" fill="black"/>
<path d="M54.24 0H45.2V9.2596H54.24V0Z" fill="black"/>
<path d="M63.28 0H54.24V9.2596H63.28V0Z" fill="black"/>
<path d="M81.36 0H72.32V9.2596H81.36V0Z" fill="black"/>
<path d="M90.4 0H81.36V9.2596H90.4V0Z" fill="black"/>
<path d="M108.48 0H99.44V9.2596H108.48V0Z" fill="black"/>
<path d="M135.6 0H126.56V9.2596H135.6V0Z" fill="black"/>
<path d="M153.68 0H144.64V9.2596H153.68V0Z" fill="black"/>
<path d="M171.76 0H162.72V9.2596H171.76V0Z" fill="black"/>
<path d="M180.8 0H171.76V9.2596H180.8V0Z" fill="black"/>
<path d="M189.84 0H180.8V9.2596H189.84V0Z" fill="black"/>
<path d="M198.88 0H189.84V9.2596H198.88V0Z" fill="black"/>
<path d="M207.92 0H198.88V9.2596H207.92V0Z" fill="black"/>
<path d="M216.96 0H207.92V9.2596H216.96V0Z" fill="black"/>
<path d="M226 0H216.96V9.2596H226V0Z" fill="black"/>
<path d="M9.04 9.2596H0V18.5192H9.04V9.2596Z" fill="black"/>
<path d="M63.28 9.2596H54.24L54.24 18.5192H63.28V9.2596Z" fill="black"/>
<path d="M90.4 9.2596H81.36V18.5192H90.4V9.2596Z" fill="black"/>
<path d="M117.52 9.2596H108.48V18.5192H117.52V9.2596Z" fill="black"/>
<path d="M144.64 9.2596H135.6L135.6 18.5192H144.64V9.2596Z" fill="black"/>
<path d="M171.76 9.2596H162.72V18.5192H171.76V9.2596Z" fill="black"/>
<path d="M226 9.2596H216.96V18.5192H226V9.2596Z" fill="black"/>
<path d="M9.04 18.5192H0V27.7788H9.04V18.5192Z" fill="black"/>
<path d="M27.12 18.5192H18.08V27.7788H27.12V18.5192Z" fill="black"/>
<path d="M36.16 18.5192H27.12V27.7788H36.16V18.5192Z" fill="black"/>
<path d="M45.2 18.5192H36.16V27.7788H45.2V18.5192Z" fill="black"/>
<path d="M63.28 18.5192H54.24V27.7788H63.28V18.5192Z" fill="black"/>
<path d="M81.36 18.5192H72.32V27.7788H81.36V18.5192Z" fill="black"/>
<path d="M90.4 18.5192H81.36V27.7788H90.4V18.5192Z" fill="black"/>
<path d="M117.52 18.5192H108.48V27.7788H117.52V18.5192Z" fill="black"/>
<path d="M126.56 18.5192H117.52V27.7788H126.56V18.5192Z" fill="black"/>
<path d="M135.6 18.5192H126.56V27.7788H135.6L135.6 18.5192Z" fill="black"/>
<path d="M144.64 18.5192H135.6L135.6 27.7788H144.64V18.5192Z" fill="black"/>
<path d="M153.68 18.5192H144.64V27.7788H153.68V18.5192Z" fill="black"/>
<path d="M171.76 18.5192H162.72V27.7788H171.76V18.5192Z" fill="black"/>
<path d="M189.84 18.5192H180.8V27.7788H189.84V18.5192Z" fill="black"/>
<path d="M198.88 18.5192H189.84V27.7788H198.88V18.5192Z" fill="black"/>
<path d="M207.92 18.5192H198.88V27.7788H207.92V18.5192Z" fill="black"/>
<path d="M226 18.5192H216.96V27.7788H226V18.5192Z" fill="black"/>
<path d="M9.04 27.7788H0V37.0384H9.04V27.7788Z" fill="black"/>
<path d="M27.12 27.7788H18.08V37.0384H27.12V27.7788Z" fill="black"/>
<path d="M36.16 27.7788H27.12V37.0384H36.16V27.7788Z" fill="black"/>
<path d="M45.2 27.7788H36.16V37.0384H45.2V27.7788Z" fill="black"/>
<path d="M63.28 27.7788H54.24V37.0384H63.28V27.7788Z" fill="black"/>
<path d="M90.4 27.7788H81.36V37.0384H90.4V27.7788Z" fill="black"/>
<path d="M99.44 27.7788H90.4V37.0384H99.44V27.7788Z" fill="black"/>
<path d="M117.52 27.7788H108.48V37.0384H117.52V27.7788Z" fill="black"/>
<path d="M144.64 27.7788H135.6L135.6 37.0384H144.64V27.7788Z" fill="black"/>
<path d="M171.76 27.7788H162.72V37.0384H171.76V27.7788Z" fill="black"/>
<path d="M189.84 27.7788H180.8V37.0384H189.84V27.7788Z" fill="black"/>
<path d="M198.88 27.7788H189.84V37.0384H198.88V27.7788Z" fill="black"/>
<path d="M207.92 27.7788H198.88V37.0384H207.92V27.7788Z" fill="black"/>
<path d="M226 27.7788H216.96V37.0384H226V27.7788Z" fill="black"/>
<path d="M9.04 37.0384H0V46.298H9.04V37.0384Z" fill="black"/>
<path d="M27.12 37.0384H18.08V46.298H27.12V37.0384Z" fill="black"/>
<path d="M36.16 37.0384H27.12V46.298H36.16V37.0384Z" fill="black"/>
<path d="M45.2 37.0384H36.16V46.298H45.2V37.0384Z" fill="black"/>
<path d="M63.28 37.0384H54.24V46.298H63.28V37.0384Z" fill="black"/>
<path d="M81.36 37.0384H72.32V46.298H81.36V37.0384Z" fill="black"/>
<path d="M90.4 37.0384H81.36V46.298H90.4V37.0384Z" fill="black"/>
<path d="M117.52 37.0384H108.48V46.298H117.52V37.0384Z" fill="black"/>
<path d="M171.76 37.0384H162.72V46.298H171.76V37.0384Z" fill="black"/>
<path d="M189.84 37.0384H180.8V46.298H189.84V37.0384Z" fill="black"/>
<path d="M198.88 37.0384H189.84V46.298H198.88V37.0384Z" fill="black"/>
<path d="M207.92 37.0384H198.88V46.298H207.92V37.0384Z" fill="black"/>
<path d="M226 37.0384H216.96V46.298H226V37.0384Z" fill="black"/>
<path d="M9.04 46.298H0V55.5576H9.04V46.298Z" fill="black"/>
<path d="M63.28 46.298H54.24V55.5576H63.28V46.298Z" fill="black"/>
<path d="M90.4 46.298H81.36V55.5576H90.4V46.298Z" fill="black"/>
<path d="M117.52 46.298H108.48V55.5576H117.52V46.298Z" fill="black"/>
<path d="M171.76 46.298H162.72V55.5576H171.76V46.298Z" fill="black"/>
<path d="M226 46.298H216.96V55.5576H226V46.298Z" fill="black"/>
<path d="M9.04 55.5576H0V64.8172H9.04V55.5576Z" fill="black"/>
<path d="M18.08 55.5576L9.04 55.5576V64.8172H18.08V55.5576Z" fill="black"/>
<path d="M27.12 55.5576H18.08V64.8172H27.12V55.5576Z" fill="black"/>
<path d="M36.16 55.5576H27.12V64.8172H36.16V55.5576Z" fill="black"/>
<path d="M45.2 55.5576H36.16V64.8172H45.2V55.5576Z" fill="black"/>
<path d="M54.24 55.5576L45.2 55.5576V64.8172H54.24L54.24 55.5576Z" fill="black"/>
<path d="M63.28 55.5576H54.24L54.24 64.8172H63.28V55.5576Z" fill="black"/>
<path d="M81.36 55.5576L72.32 55.5576V64.8172H81.36V55.5576Z" fill="black"/>
<path d="M99.44 55.5576L90.4 55.5576V64.8172H99.44V55.5576Z" fill="black"/>
<path d="M117.52 55.5576H108.48V64.8172H117.52V55.5576Z" fill="black"/>
<path d="M135.6 55.5576H126.56V64.8172H135.6V55.5576Z" fill="black"/>
<path d="M153.68 55.5576H144.64V64.8172H153.68V55.5576Z" fill="black"/>
<path d="M171.76 55.5576H162.72V64.8172H171.76V55.5576Z" fill="black"/>
<path d="M180.8 55.5576L171.76 55.5576V64.8172H180.8V55.5576Z" fill="black"/>
<path d="M189.84 55.5576H180.8V64.8172H189.84V55.5576Z" fill="black"/>
<path d="M198.88 55.5576H189.84V64.8172H198.88V55.5576Z" fill="black"/>
<path d="M207.92 55.5576H198.88V64.8172H207.92V55.5576Z" fill="black"/>
<path d="M216.96 55.5576L207.92 55.5576V64.8172H216.96V55.5576Z" fill="black"/>
<path d="M226 55.5576H216.96V64.8172H226V55.5576Z" fill="black"/>
<path d="M108.48 64.8172H99.44V74.0768H108.48V64.8172Z" fill="black"/>
<path d="M117.52 64.8172H108.48V74.0768H117.52V64.8172Z" fill="black"/>
<path d="M126.56 64.8172H117.52V74.0768H126.56V64.8172Z" fill="black"/>
<path d="M144.64 64.8172H135.6L135.6 74.0768H144.64V64.8172Z" fill="black"/>
<path d="M18.08 74.0768H9.04V83.3364H18.08V74.0768Z" fill="black"/>
<path d="M45.2 74.0768H36.16V83.3364H45.2V74.0768Z" fill="black"/>
<path d="M63.28 74.0768H54.24V83.3364H63.28V74.0768Z" fill="black"/>
<path d="M99.44 74.0768H90.4V83.3364H99.44V74.0768Z" fill="black"/>
<path d="M153.68 74.0768H144.64V83.3364H153.68V74.0768Z" fill="black"/>
<path d="M162.72 74.0768H153.68V83.3364H162.72V74.0768Z" fill="black"/>
<path d="M189.84 74.0768H180.8V83.3364H189.84V74.0768Z" fill="black"/>
<path d="M207.92 74.0768H198.88V83.3364H207.92V74.0768Z" fill="black"/>
<path d="M226 74.0768H216.96V83.3364H226V74.0768Z" fill="black"/>
<path d="M9.04 83.3364H0V92.596H9.04V83.3364Z" fill="black"/>
<path d="M18.08 83.3364H9.04V92.596H18.08V83.3364Z" fill="black"/>
<path d="M45.2 83.3364H36.16V92.596H45.2V83.3364Z" fill="black"/>
<path d="M135.6 83.3364H126.56V92.596H135.6V83.3364Z" fill="black"/>
<path d="M144.64 83.3364H135.6V92.596H144.64V83.3364Z" fill="black"/>
<path d="M162.72 83.3364H153.68V92.596H162.72V83.3364Z" fill="black"/>
<path d="M180.8 83.3364H171.76V92.596H180.8V83.3364Z" fill="black"/>
<path d="M198.88 83.3364H189.84V92.596H198.88V83.3364Z" fill="black"/>
<path d="M207.92 83.3364H198.88V92.596H207.92V83.3364Z" fill="black"/>
<path d="M216.96 83.3364H207.92V92.596H216.96V83.3364Z" fill="black"/>
<path d="M9.04 92.596H0V101.856H9.04V92.596Z" fill="black"/>
<path d="M18.08 92.596H9.04V101.856H18.08V92.596Z" fill="black"/>
<path d="M27.12 92.596H18.08V101.856H27.12V92.596Z" fill="black"/>
<path d="M63.28 92.596H54.24V101.856H63.28V92.596Z" fill="black"/>
<path d="M81.36 92.596H72.32V101.856H81.36V92.596Z" fill="black"/>
<path d="M90.4 92.596H81.36V101.856H90.4V92.596Z" fill="black"/>
<path d="M108.48 92.596H99.44V101.856H108.48V92.596Z" fill="black"/>
<path d="M126.56 92.596H117.52V101.856H126.56V92.596Z" fill="black"/>
<path d="M144.64 92.596H135.6L135.6 101.856H144.64V92.596Z" fill="black"/>
<path d="M162.72 92.596H153.68V101.856H162.72V92.596Z" fill="black"/>
<path d="M171.76 92.596H162.72V101.856H171.76V92.596Z" fill="black"/>
<path d="M207.92 92.596H198.88V101.856H207.92V92.596Z" fill="black"/>
<path d="M9.04 101.856H0V111.115H9.04V101.856Z" fill="black"/>
<path d="M27.12 101.856H18.08V111.115H27.12V101.856Z" fill="black"/>
<path d="M36.16 101.856H27.12V111.115H36.16V101.856Z" fill="black"/>
<path d="M45.2 101.856H36.16V111.115H45.2V101.856Z" fill="black"/>
<path d="M90.4 101.856H81.36V111.115H90.4V101.856Z" fill="black"/>
<path d="M99.44 101.856H90.4V111.115H99.44V101.856Z" fill="black"/>
<path d="M108.48 101.856H99.44V111.115H108.48V101.856Z" fill="black"/>
<path d="M126.56 101.856H117.52V111.115H126.56V101.856Z" fill="black"/>
<path d="M144.64 101.856H135.6V111.115H144.64V101.856Z" fill="black"/>
<path d="M162.72 101.856H153.68V111.115H162.72V101.856Z" fill="black"/>
<path d="M171.76 101.856H162.72V111.115H171.76V101.856Z" fill="black"/>
<path d="M189.84 101.856H180.8V111.115H189.84V101.856Z" fill="black"/>
<path d="M198.88 101.856H189.84V111.115H198.88V101.856Z" fill="black"/>
<path d="M216.96 101.856H207.92V111.115H216.96V101.856Z" fill="black"/>
<path d="M18.08 111.115H9.04V120.375H18.08V111.115Z" fill="black"/>
<path d="M27.12 111.115H18.08V120.375H27.12V111.115Z" fill="black"/>
<path d="M54.24 111.115H45.2V120.375H54.24V111.115Z" fill="black"/>
<path d="M63.28 111.115H54.24V120.375H63.28V111.115Z" fill="black"/>
<path d="M90.4 111.115H81.36V120.375H90.4V111.115Z" fill="black"/>
<path d="M153.68 111.115H144.64V120.375H153.68V111.115Z" fill="black"/>
<path d="M162.72 111.115H153.68V120.375H162.72V111.115Z" fill="black"/>
<path d="M171.76 111.115H162.72V120.375H171.76V111.115Z" fill="black"/>
<path d="M180.8 111.115H171.76V120.375H180.8V111.115Z" fill="black"/>
<path d="M226 111.115H216.96V120.375H226V111.115Z" fill="black"/>
<path d="M18.08 120.375H9.04V129.634H18.08V120.375Z" fill="black"/>
<path d="M36.16 120.375H27.12V129.634H36.16V120.375Z" fill="black"/>
<path d="M45.2 120.375H36.16V129.634H45.2V120.375Z" fill="black"/>
<path d="M90.4 120.375H81.36V129.634H90.4V120.375Z" fill="black"/>
<path d="M108.48 120.375H99.44V129.634H108.48V120.375Z" fill="black"/>
<path d="M135.6 120.375H126.56V129.634H135.6V120.375Z" fill="black"/>
<path d="M162.72 120.375H153.68V129.634H162.72V120.375Z" fill="black"/>
<path d="M180.8 120.375H171.76V129.634H180.8V120.375Z" fill="black"/>
<path d="M207.92 120.375H198.88V129.634H207.92V120.375Z" fill="black"/>
<path d="M9.04 129.634H0V138.894H9.04V129.634Z" fill="black"/>
<path d="M54.24 129.634H45.2V138.894H54.24V129.634Z" fill="black"/>
<path d="M63.28 129.634H54.24V138.894H63.28V129.634Z" fill="black"/>
<path d="M99.44 129.634H90.4V138.894H99.44V129.634Z" fill="black"/>
<path d="M108.48 129.634H99.44V138.894H108.48V129.634Z" fill="black"/>
<path d="M117.52 129.634H108.48V138.894H117.52V129.634Z" fill="black"/>
<path d="M126.56 129.634H117.52V138.894H126.56V129.634Z" fill="black"/>
<path d="M171.76 129.634H162.72V138.894H171.76V129.634Z" fill="black"/>
<path d="M180.8 129.634H171.76V138.894H180.8V129.634Z" fill="black"/>
<path d="M189.84 129.634H180.8V138.894H189.84V129.634Z" fill="black"/>
<path d="M198.88 129.634H189.84V138.894H198.88V129.634Z" fill="black"/>
<path d="M27.12 138.894H18.08V148.154H27.12V138.894Z" fill="black"/>
<path d="M54.24 138.894H45.2V148.154H54.24V138.894Z" fill="black"/>
<path d="M72.32 138.894L63.28 138.894V148.154H72.32V138.894Z" fill="black"/>
<path d="M90.4 138.894L81.36 138.894V148.154H90.4V138.894Z" fill="black"/>
<path d="M99.44 138.894H90.4V148.154H99.44V138.894Z" fill="black"/>
<path d="M117.52 138.894H108.48V148.154H117.52V138.894Z" fill="black"/>
<path d="M126.56 138.894H117.52V148.154H126.56V138.894Z" fill="black"/>
<path d="M144.64 138.894H135.6V148.154H144.64V138.894Z" fill="black"/>
<path d="M162.72 138.894L153.68 138.894V148.154H162.72V138.894Z" fill="black"/>
<path d="M189.84 138.894H180.8V148.154H189.84V138.894Z" fill="black"/>
<path d="M198.88 138.894H189.84V148.154H198.88V138.894Z" fill="black"/>
<path d="M207.92 138.894L198.88 138.894V148.154H207.92V138.894Z" fill="black"/>
<path d="M216.96 138.894H207.92V148.154H216.96V138.894Z" fill="black"/>
<path d="M36.16 148.154H27.12V157.413H36.16V148.154Z" fill="black"/>
<path d="M45.2 148.154H36.16V157.413H45.2V148.154Z" fill="black"/>
<path d="M54.24 148.154H45.2V157.413H54.24V148.154Z" fill="black"/>
<path d="M63.28 148.154H54.24V157.413H63.28V148.154Z" fill="black"/>
<path d="M81.36 148.154H72.32V157.413H81.36V148.154Z" fill="black"/>
<path d="M90.4 148.154H81.36V157.413H90.4V148.154Z" fill="black"/>
<path d="M99.44 148.154H90.4V157.413H99.44V148.154Z" fill="black"/>
<path d="M108.48 148.154H99.44V157.413H108.48V148.154Z" fill="black"/>
<path d="M153.68 148.154H144.64V157.413H153.68V148.154Z" fill="black"/>
<path d="M162.72 148.154H153.68V157.413H162.72V148.154Z" fill="black"/>
<path d="M171.76 148.154H162.72V157.413H171.76V148.154Z" fill="black"/>
<path d="M180.8 148.154H171.76V157.413H180.8V148.154Z" fill="black"/>
<path d="M189.84 148.154H180.8V157.413H189.84V148.154Z" fill="black"/>
<path d="M198.88 148.154H189.84V157.413H198.88V148.154Z" fill="black"/>
<path d="M226 148.154H216.96V157.413H226V148.154Z" fill="black"/>
<path d="M90.4 157.413H81.36V166.673H90.4V157.413Z" fill="black"/>
<path d="M99.44 157.413H90.4V166.673H99.44V157.413Z" fill="black"/>
<path d="M108.48 157.413H99.44V166.673H108.48V157.413Z" fill="black"/>
<path d="M117.52 157.413H108.48V166.673H117.52V157.413Z" fill="black"/>
<path d="M126.56 157.413H117.52V166.673H126.56V157.413Z" fill="black"/>
<path d="M135.6 157.413H126.56V166.673H135.6V157.413Z" fill="black"/>
<path d="M153.68 157.413H144.64V166.673H153.68V157.413Z" fill="black"/>
<path d="M189.84 157.413H180.8V166.673H189.84V157.413Z" fill="black"/>
<path d="M226 157.413H216.96V166.673H226V157.413Z" fill="black"/>
<path d="M9.04 166.673H0V175.932H9.04V166.673Z" fill="black"/>
<path d="M18.08 166.673H9.04V175.932H18.08V166.673Z" fill="black"/>
<path d="M27.12 166.673H18.08V175.932H27.12V166.673Z" fill="black"/>
<path d="M36.16 166.673H27.12V175.932H36.16V166.673Z" fill="black"/>
<path d="M45.2 166.673H36.16V175.932H45.2V166.673Z" fill="black"/>
<path d="M54.24 166.673H45.2V175.932H54.24V166.673Z" fill="black"/>
<path d="M63.28 166.673H54.24V175.932H63.28V166.673Z" fill="black"/>
<path d="M90.4 166.673H81.36V175.932H90.4V166.673Z" fill="black"/>
<path d="M99.44 166.673H90.4V175.932H99.44V166.673Z" fill="black"/>
<path d="M108.48 166.673H99.44V175.932H108.48V166.673Z" fill="black"/>
<path d="M117.52 166.673H108.48V175.932H117.52V166.673Z" fill="black"/>
<path d="M126.56 166.673H117.52V175.932H126.56V166.673Z" fill="black"/>
<path d="M135.6 166.673H126.56V175.932H135.6V166.673Z" fill="black"/>
<path d="M153.68 166.673H144.64V175.932H153.68V166.673Z" fill="black"/>
<path d="M171.76 166.673H162.72V175.932H171.76V166.673Z" fill="black"/>
<path d="M189.84 166.673H180.8V175.932H189.84V166.673Z" fill="black"/>
<path d="M226 166.673H216.96V175.932H226V166.673Z" fill="black"/>
<path d="M9.04 175.932H0V185.192H9.04V175.932Z" fill="black"/>
<path d="M63.28 175.932H54.24L54.24 185.192H63.28V175.932Z" fill="black"/>
<path d="M135.6 175.932H126.56V185.192H135.6V175.932Z" fill="black"/>
<path d="M153.68 175.932H144.64V185.192H153.68V175.932Z" fill="black"/>
<path d="M189.84 175.932H180.8V185.192H189.84V175.932Z" fill="black"/>
<path d="M198.88 175.932H189.84V185.192H198.88V175.932Z" fill="black"/>
<path d="M207.92 175.932H198.88V185.192H207.92V175.932Z" fill="black"/>
<path d="M9.04 185.192H0V194.452H9.04V185.192Z" fill="black"/>
<path d="M27.12 185.192H18.08V194.452H27.12V185.192Z" fill="black"/>
<path d="M36.16 185.192H27.12V194.452H36.16V185.192Z" fill="black"/>
<path d="M45.2 185.192H36.16V194.452H45.2V185.192Z" fill="black"/>
<path d="M63.28 185.192H54.24V194.452H63.28V185.192Z" fill="black"/>
<path d="M81.36 185.192H72.32V194.452H81.36V185.192Z" fill="black"/>
<path d="M144.64 185.192H135.6L135.6 194.452H144.64V185.192Z" fill="black"/>
<path d="M153.68 185.192H144.64V194.452H153.68V185.192Z" fill="black"/>
<path d="M162.72 185.192H153.68V194.452H162.72V185.192Z" fill="black"/>
<path d="M171.76 185.192H162.72V194.452H171.76V185.192Z" fill="black"/>
<path d="M180.8 185.192H171.76V194.452H180.8V185.192Z" fill="black"/>
<path d="M189.84 185.192H180.8V194.452H189.84V185.192Z" fill="black"/>
<path d="M198.88 185.192H189.84V194.452H198.88V185.192Z" fill="black"/>
<path d="M207.92 185.192H198.88V194.452H207.92V185.192Z" fill="black"/>
<path d="M216.96 185.192H207.92V194.452H216.96V185.192Z" fill="black"/>
<path d="M226 185.192H216.96V194.452H226V185.192Z" fill="black"/>
<path d="M9.04 194.452H0V203.711H9.04V194.452Z" fill="black"/>
<path d="M27.12 194.452H18.08V203.711H27.12V194.452Z" fill="black"/>
<path d="M36.16 194.452H27.12V203.711H36.16V194.452Z" fill="black"/>
<path d="M45.2 194.452H36.16V203.711H45.2V194.452Z" fill="black"/>
<path d="M63.28 194.452H54.24V203.711H63.28V194.452Z" fill="black"/>
<path d="M99.44 194.452H90.4V203.711H99.44V194.452Z" fill="black"/>
<path d="M126.56 194.452H117.52V203.711H126.56V194.452Z" fill="black"/>
<path d="M135.6 194.452H126.56V203.711H135.6L135.6 194.452Z" fill="black"/>
<path d="M162.72 194.452H153.68V203.711H162.72V194.452Z" fill="black"/>
<path d="M171.76 194.452H162.72V203.711H171.76V194.452Z" fill="black"/>
<path d="M180.8 194.452H171.76V203.711H180.8V194.452Z" fill="black"/>
<path d="M198.88 194.452H189.84V203.711H198.88V194.452Z" fill="black"/>
<path d="M9.04 203.711H0V212.971H9.04V203.711Z" fill="black"/>
<path d="M27.12 203.711H18.08V212.971H27.12V203.711Z" fill="black"/>
<path d="M36.16 203.711H27.12V212.971H36.16V203.711Z" fill="black"/>
<path d="M45.2 203.711H36.16V212.971H45.2V203.711Z" fill="black"/>
<path d="M63.28 203.711H54.24V212.971H63.28V203.711Z" fill="black"/>
<path d="M126.56 203.711H117.52V212.971H126.56V203.711Z" fill="black"/>
<path d="M135.6 203.711H126.56V212.971H135.6V203.711Z" fill="black"/>
<path d="M207.92 203.711H198.88V212.971H207.92V203.711Z" fill="black"/>
<path d="M226 203.711H216.96V212.971H226V203.711Z" fill="black"/>
<path d="M9.04 212.971H0V222.23H9.04V212.971Z" fill="black"/>
<path d="M63.28 212.971H54.24V222.23H63.28V212.971Z" fill="black"/>
<path d="M81.36 212.971H72.32V222.23H81.36V212.971Z" fill="black"/>
<path d="M90.4 212.971H81.36V222.23H90.4V212.971Z" fill="black"/>
<path d="M99.44 212.971H90.4V222.23H99.44V212.971Z" fill="black"/>
<path d="M126.56 212.971H117.52V222.23H126.56V212.971Z" fill="black"/>
<path d="M135.6 212.971H126.56V222.23H135.6V212.971Z" fill="black"/>
<path d="M153.68 212.971H144.64V222.23H153.68V212.971Z" fill="black"/>
<path d="M162.72 212.971H153.68V222.23H162.72V212.971Z" fill="black"/>
<path d="M171.76 212.971H162.72V222.23H171.76V212.971Z" fill="black"/>
<path d="M180.8 212.971H171.76V222.23H180.8V212.971Z" fill="black"/>
<path d="M189.84 212.971H180.8V222.23H189.84V212.971Z" fill="black"/>
<path d="M198.88 212.971H189.84V222.23H198.88V212.971Z" fill="black"/>
<path d="M216.96 212.971H207.92V222.23H216.96V212.971Z" fill="black"/>
<path d="M226 212.971H216.96V222.23H226V212.971Z" fill="black"/>
<path d="M9.04 222.23H0V231.49H9.04V222.23Z" fill="black"/>
<path d="M18.08 222.23H9.04V231.49H18.08V222.23Z" fill="black"/>
<path d="M27.12 222.23H18.08V231.49H27.12V222.23Z" fill="black"/>
<path d="M36.16 222.23H27.12V231.49H36.16V222.23Z" fill="black"/>
<path d="M45.2 222.23H36.16V231.49H45.2V222.23Z" fill="black"/>
<path d="M54.24 222.23H45.2V231.49H54.24L54.24 222.23Z" fill="black"/>
<path d="M63.28 222.23H54.24L54.24 231.49H63.28V222.23Z" fill="black"/>
<path d="M90.4 222.23H81.36V231.49H90.4V222.23Z" fill="black"/>
<path d="M99.44 222.23H90.4V231.49H99.44V222.23Z" fill="black"/>
<path d="M117.52 222.23H108.48V231.49H117.52V222.23Z" fill="black"/>
<path d="M126.56 222.23H117.52V231.49H126.56V222.23Z" fill="black"/>
<path d="M135.6 222.23H126.56V231.49H135.6V222.23Z" fill="black"/>
<path d="M171.76 222.23H162.72V231.49H171.76V222.23Z" fill="black"/>
<path d="M207.92 222.23H198.88V231.49H207.92V222.23Z" fill="black"/>
<path d="M226 222.23H216.96V231.49H226V222.23Z" fill="black"/>
</svg>
