<svg width="18" height="18" viewBox="0 0 18 18" fill="none" xmlns="http://www.w3.org/2000/svg">
<path fill-rule="evenodd" clip-rule="evenodd" d="M8.83273 10.0985C8.33098 10.0985 7.83073 9.93275 7.41223 9.60125L4.04848 6.88925C3.80623 6.69425 3.76873 6.3395 3.96298 6.098C4.15873 5.85725 4.51273 5.819 4.75423 6.01325L8.11498 8.72225C8.53723 9.05675 9.13198 9.05675 9.55723 8.71925L12.8842 6.01475C13.1257 5.8175 13.4797 5.855 13.6762 6.0965C13.872 6.33725 13.8352 6.69125 13.5945 6.88775L10.2615 9.59675C9.83998 9.93125 9.33598 10.0985 8.83273 10.0985Z" fill="#001833"/>
<mask id="mask0_2_2904" style="mask-type:luminance" maskUnits="userSpaceOnUse" x="0" y="1" width="17" height="16">
<path fill-rule="evenodd" clip-rule="evenodd" d="M0.75 1.5H16.8749V16.125H0.75V1.5Z" fill="white"/>
</mask>
<g mask="url(#mask0_2_2904)">
<path fill-rule="evenodd" clip-rule="evenodd" d="M5.12913 15H12.4941C12.4956 14.9985 12.5016 15 12.5061 15C13.3619 15 14.1209 14.694 14.7029 14.1128C15.3786 13.44 15.7499 12.4732 15.7499 11.391V6.24C15.7499 4.14525 14.3804 2.625 12.4941 2.625H5.13063C3.24438 2.625 1.87488 4.14525 1.87488 6.24V11.391C1.87488 12.4732 2.24688 13.44 2.92188 14.1128C3.50388 14.694 4.26363 15 5.11863 15H5.12913ZM5.11638 16.125C3.95913 16.125 2.92563 15.705 2.12763 14.91C1.23888 14.0235 0.749878 12.774 0.749878 11.391V6.24C0.749878 3.53775 2.63313 1.5 5.13063 1.5H12.4941C14.9916 1.5 16.8749 3.53775 16.8749 6.24V11.391C16.8749 12.774 16.3859 14.0235 15.4971 14.91C14.6999 15.7042 13.6656 16.125 12.5061 16.125H12.4941H5.13063H5.11638Z" fill="#001833"/>
</g>
</svg>
