<svg width="16" height="19" viewBox="0 0 16 19" fill="none" xmlns="http://www.w3.org/2000/svg">
<path fill-rule="evenodd" clip-rule="evenodd" d="M12.2761 7.78915C11.8828 7.78915 11.5636 7.46998 11.5636 7.07671V5.03722C11.5636 3.04618 9.94403 1.42656 7.95299 1.42656H7.93779C6.97552 1.42656 6.07404 1.79703 5.39295 2.47243C4.7071 3.15067 4.32808 4.05595 4.32428 5.02107V7.07671C4.32428 7.46998 4.00511 7.78915 3.61184 7.78915C3.21857 7.78915 2.8994 7.46998 2.8994 7.07671V5.03722C2.9051 3.66933 3.4342 2.40689 4.38888 1.46076C5.3445 0.513687 6.606 -0.0344188 7.95584 0.00167829C10.7296 0.00167829 12.9885 2.2606 12.9885 5.03722V7.07671C12.9885 7.46998 12.6694 7.78915 12.2761 7.78915Z" fill="#001833"/>
<path fill-rule="evenodd" clip-rule="evenodd" d="M4.31463 7.7218C2.72066 7.7218 1.42497 9.0175 1.42497 10.6115V14.6857C1.42497 16.2797 2.72066 17.5754 4.31463 17.5754H11.573C13.166 17.5754 14.4627 16.2797 14.4627 14.6857V10.6115C14.4627 9.0175 13.166 7.7218 11.573 7.7218H4.31463ZM11.5729 19H4.31455C1.93499 19 0 17.065 0 14.6855V10.6112C0 8.23169 1.93499 6.29669 4.31455 6.29669H11.5729C13.9525 6.29669 15.8875 8.23169 15.8875 10.6112V14.6855C15.8875 17.065 13.9525 19 11.5729 19Z" fill="#001833"/>
<path fill-rule="evenodd" clip-rule="evenodd" d="M7.94296 14.4156C7.5497 14.4156 7.23052 14.0964 7.23052 13.7031V11.5934C7.23052 11.2001 7.5497 10.8809 7.94296 10.8809C8.33623 10.8809 8.65541 11.2001 8.65541 11.5934V13.7031C8.65541 14.0964 8.33623 14.4156 7.94296 14.4156Z" fill="#001833"/>
</svg>
