<svg width="20" height="20" viewBox="0 0 20 20" fill="none" xmlns="http://www.w3.org/2000/svg">
<path fill-rule="evenodd" clip-rule="evenodd" d="M10.2088 7.08301C9.40459 7.08301 8.75043 7.73717 8.75043 8.54217C8.75043 9.34634 9.40459 9.99967 10.2088 9.99967C11.0129 9.99967 11.6671 9.34634 11.6671 8.54217C11.6671 7.73717 11.0129 7.08301 10.2088 7.08301ZM10.2088 11.2497C8.71543 11.2497 7.50043 10.0355 7.50043 8.54217C7.50043 7.04801 8.71543 5.83301 10.2088 5.83301C11.7021 5.83301 12.9171 7.04801 12.9171 8.54217C12.9171 10.0355 11.7021 11.2497 10.2088 11.2497Z" fill="#324A59"/>
<mask id="mask0_2_1597" style="mask-type:luminance" maskUnits="userSpaceOnUse" x="3" y="1" width="15" height="17">
<path fill-rule="evenodd" clip-rule="evenodd" d="M3.33331 1.6665H17.0829V17.9165H3.33331V1.6665Z" fill="white"/>
</mask>
<g mask="url(#mask0_2_1597)">
<path fill-rule="evenodd" clip-rule="evenodd" d="M10.2079 2.9165C7.10622 2.9165 4.58289 5.464 4.58289 8.594C4.58289 12.5765 9.26955 16.4565 10.2079 16.6632C11.1462 16.4557 15.8329 12.5757 15.8329 8.594C15.8329 5.464 13.3096 2.9165 10.2079 2.9165ZM10.2079 17.9165C8.71289 17.9165 3.33289 13.2898 3.33289 8.594C3.33289 4.774 6.41705 1.6665 10.2079 1.6665C13.9987 1.6665 17.0829 4.774 17.0829 8.594C17.0829 13.2898 11.7029 17.9165 10.2079 17.9165Z" fill="#324A59"/>
</g>
</svg>
