<svg width="28" height="27" viewBox="0 0 28 27" fill="none" xmlns="http://www.w3.org/2000/svg">
<path d="M24.3654 14.0812H22.4307L22.5329 11.9358C22.5444 11.6927 22.4559 11.4553 22.2879 11.2792C22.12 11.1031 21.8871 11.0034 21.6438 11.0034H2.06266C1.81921 11.0034 1.58645 11.1031 1.41852 11.2792C1.25059 11.4554 1.16202 11.6927 1.1736 11.9358L1.5688 20.2262C1.66641 22.2749 2.92131 23.9987 4.68444 24.7819H0.890099C0.398616 24.7819 0 25.1805 0 25.672C0 26.1634 0.398616 26.5621 0.890099 26.5621H22.9419C23.4333 26.5621 23.832 26.1634 23.832 25.672C23.832 25.1805 23.4333 24.7819 22.9419 24.7819H19.0222C20.4514 24.1469 21.5456 22.8938 21.961 21.3504H24.3654C26.3695 21.3504 28 19.7199 28 17.7158C28 15.7117 26.3695 14.0812 24.3654 14.0812ZM16.8853 23.4541H6.82128C4.96156 23.4541 3.43549 21.999 3.34692 20.1413L2.99622 12.7833H20.7102L20.3597 20.1413C20.2711 21.999 18.745 23.4541 16.8853 23.4541ZM24.3654 19.5702H22.1691L22.3459 15.8595C22.3591 15.8601 22.3722 15.8614 22.3856 15.8614H24.3654C25.388 15.8614 26.2198 16.6932 26.2198 17.7158C26.2198 18.7384 25.388 19.5702 24.3654 19.5702Z" fill="#D8D8D8"/>
<path d="M9.2378 9.54448C9.37992 9.62845 9.53584 9.6685 9.68983 9.6685C9.99424 9.6685 10.2908 9.51214 10.4569 9.23116C10.7072 8.80792 10.5669 8.26214 10.1436 8.01203C9.64873 7.71948 9.30664 7.17978 9.20517 6.53149C9.09954 5.8565 9.27593 5.18418 9.67662 4.73335C9.68018 4.72934 9.68374 4.72533 9.68716 4.72118C9.78403 4.60814 9.8809 4.49702 9.97688 4.3868C10.8002 3.44122 11.6518 2.46374 11.8962 1.04107C11.9796 0.556555 11.6543 0.0962249 11.1699 0.0130006C10.6854 -0.0702237 10.2251 0.254811 10.1418 0.739322C9.98178 1.67037 9.35737 2.38734 8.63446 3.21751C8.537 3.32936 8.43879 3.44226 8.34058 3.55678C7.59424 4.4006 7.26 5.61469 7.44648 6.80639C7.63014 7.98221 8.28317 8.98016 9.2378 9.54448Z" fill="#D8D8D8"/>
<path d="M12.0001 7.53451C12.294 8.29124 12.8182 8.98433 13.4765 9.48605C13.6376 9.60888 13.8272 9.66837 14.0154 9.66837C14.2836 9.66837 14.5489 9.54762 14.7239 9.31782C15.022 8.92692 14.9466 8.36838 14.5556 8.07035C14.1603 7.76905 13.8337 7.33898 13.6595 6.89022C13.3125 5.99671 13.6413 5.10632 14.7589 3.91284C15.5513 3.06666 16.0577 2.07004 16.2234 1.03041C16.3007 0.545006 15.9701 0.0886815 15.4845 0.0112429C14.9991 -0.0661958 14.5428 0.264624 14.4654 0.750173C14.3542 1.44727 14.0159 2.10194 13.4595 2.69608C12.8758 3.3193 11.0997 5.21595 12.0001 7.53451Z" fill="#D8D8D8"/>
</svg>
